<svg width="24" height="24" viewBox="0 0 24 24" fill="none" xmlns="http://www.w3.org/2000/svg">
<g clip-path="url(#clip0_148_29)">
<path d="M6.62846 20.2833L6.9913 20.4984C8.51592 21.4032 10.2639 21.8817 12.0464 21.8827H12.0503C17.5246 21.8827 21.98 17.4283 21.9821 11.9536C21.983 9.30039 20.9509 6.80586 19.0758 4.92897C17.2004 3.05242 14.7071 2.01825 12.0538 2.01715C6.57541 2.01715 2.11998 6.47085 2.11791 11.9455C2.11719 13.8215 2.64199 15.6487 3.63634 17.2293L3.87268 17.605L2.8691 21.2689L6.62846 20.2833ZM0.00025177 24.107L1.69548 17.917C0.649845 16.1053 0.099763 14.0502 0.100624 11.9449C0.103173 5.35842 5.46333 -0.000152588 12.0505 -0.000152588C15.2469 0.0012252 18.2472 1.24523 20.5033 3.50322C22.7592 5.76118 24.0011 8.76259 24.0001 11.9546C23.9973 18.5408 18.636 23.9004 12.0505 23.9004C12.0501 23.9004 12.0508 23.9004 12.0505 23.9004H12.0454C10.0456 23.8997 8.0805 23.398 6.33519 22.4461L0.00025177 24.107Z" fill="white"></path>
<path d="M0.51234 11.9513C0.511616 13.9835 1.04262 15.9675 2.0523 17.7166L0.415619 23.6925L6.53094 22.089C8.21584 23.0071 10.1129 23.4918 12.0435 23.4924H12.0485C18.4063 23.4924 23.5813 18.3188 23.584 11.9603C23.5852 8.87887 22.3864 5.98176 20.2083 3.80175C18.0305 1.62206 15.1342 0.421002 12.0479 0.419556C5.68979 0.419556 0.515095 5.59244 0.51234 11.9513Z" fill="url(#paint0_linear_148_29)"></path>
<path d="M0.10038 11.9475C0.0996566 14.0527 0.649739 16.1081 1.69538 17.9195L7.62939e-06 24.1093L6.33474 22.4483C8.08016 23.4001 10.0451 23.9017 12.045 23.9026H12.0501C18.6356 23.9026 23.9969 18.543 23.9997 11.9568C24.0008 8.76462 22.7588 5.76328 20.5028 3.50542C18.2466 1.24757 15.2466 0.00342247 12.0501 0.00204468C5.46323 0.00204468 0.102934 5.36061 0.100179 11.9471M3.87257 17.6074L3.6361 17.2319C2.64175 15.651 2.11695 13.8239 2.11767 11.948C2.11984 6.47374 6.57517 2.01968 12.0536 2.01968C14.7066 2.02072 17.2 3.05499 19.0755 4.9315C20.9508 6.80816 21.9827 9.30289 21.982 11.9558C21.9796 17.4305 17.5242 21.8849 12.0499 21.8849H12.046C10.2635 21.8838 8.51538 21.4054 6.99085 20.5007L6.62801 20.2856L2.86871 21.2712L3.87257 17.6074ZM12.0501 23.9026C12.0499 23.9026 12.05 23.9026 12.0501 23.9026V23.9026Z" fill="url(#paint1_linear_148_29)"></path>
<path fill-rule="evenodd" clip-rule="evenodd" d="M9.06359 6.95317C8.83989 6.45593 8.60451 6.44598 8.39175 6.43723C8.21762 6.42982 8.01847 6.4303 7.81955 6.4303C7.62039 6.4303 7.29692 6.50503 7.02339 6.80382C6.74962 7.10262 5.97827 7.8249 5.97827 9.29387C5.97827 10.763 7.04833 12.1825 7.19741 12.3819C7.34675 12.5809 9.26303 15.6919 12.2976 16.8886C14.8199 17.8832 15.3332 17.6854 15.8806 17.6356C16.428 17.5859 17.6472 16.9135 17.8959 16.2163C18.1447 15.5192 18.1447 14.9216 18.0701 14.7968C17.9955 14.6724 17.7964 14.5976 17.4978 14.4484C17.1991 14.2991 15.7312 13.5767 15.4576 13.477C15.1838 13.3775 14.9848 13.3278 14.7856 13.6267C14.5866 13.9253 14.0147 14.5976 13.8405 14.7968C13.6664 14.9963 13.4921 15.0212 13.1935 14.8719C12.8949 14.7221 11.9332 14.4071 10.7924 13.39C9.90479 12.5986 9.30559 11.6213 9.13134 11.3224C8.95721 11.0238 9.11275 10.8621 9.26245 10.7132C9.3966 10.5794 9.56113 10.3646 9.71047 10.1903C9.85945 10.016 9.90915 9.89154 10.0087 9.69237C10.1083 9.49309 10.0585 9.31871 9.98388 9.16936C9.90915 9.02002 9.32909 7.54359 9.06359 6.95317Z" fill="#0F172A"></path>
</g>
<defs>
<linearGradient id="paint0_linear_148_29" x1="11.9999" y1="23.6901" x2="11.9999" y2="0.41711" gradientUnits="userSpaceOnUse">
<stop offset="1" stop-color="#F8FAFC"></stop>
</linearGradient>
<linearGradient id="paint1_linear_148_29" x1="12" y1="24.11" x2="12" y2="0.00276888" gradientUnits="userSpaceOnUse">
<stop offset="1" stop-color="#0F172A"></stop>
</linearGradient>
<clipPath id="clip0_148_29">
<rect width="24" height="24" fill="white"></rect>
</clipPath>
</defs>
</svg>