<svg width="24" height="24" viewBox="0 0 24 24" fill="none" xmlns="http://www.w3.org/2000/svg">
<g clip-path="url(#clip0_148_26)">
<path d="M12.005 24.01C18.6352 24.01 24.01 18.6352 24.01 12.005C24.01 5.37482 18.6352 0 12.005 0C5.37482 0 0 5.37482 0 12.005C0 18.6352 5.37482 24.01 12.005 24.01Z" fill="#0F172A"></path>
<path fill-rule="evenodd" clip-rule="evenodd" d="M5.42774 11.875C8.92628 10.3557 11.2553 9.34609 12.4248 8.8563C15.7534 7.46688 16.4531 7.22698 16.903 7.21698C17.0029 7.21698 17.2228 7.23697 17.3728 7.35692C17.4927 7.45688 17.5227 7.58683 17.5427 7.68678C17.5627 7.78674 17.5827 7.99666 17.5627 8.15659C17.3828 10.0558 16.6031 14.6639 16.2033 16.783C16.0333 17.6826 15.7035 17.9825 15.3836 18.0125C14.6839 18.0725 14.1541 17.5527 13.4844 17.1129C12.4248 16.4231 11.8351 15.9933 10.8055 15.3136C9.61599 14.5339 10.3857 14.1041 11.0654 13.4044C11.2453 13.2245 14.314 10.4256 14.374 10.1757C14.384 10.1458 14.384 10.0258 14.314 9.96583C14.2441 9.90586 14.1441 9.92585 14.0641 9.94584C13.9542 9.96583 12.2749 11.0854 9.00625 13.2944C8.52645 13.6243 8.09663 13.7842 7.70679 13.7742C7.27697 13.7643 6.45731 13.5343 5.83757 13.3344C5.08788 13.0945 4.48813 12.9646 4.53811 12.5448C4.5681 12.3249 4.86797 12.1049 5.42774 11.875Z" fill="#F8FAFC"></path>
</g>
<defs>
<clipPath id="clip0_148_26">
<rect width="24" height="24" fill="white"></rect>
</clipPath>
</defs>
</svg>