<svg width="20" height="21" viewBox="0 0 20 21" fill="none" xmlns="http://www.w3.org/2000/svg">
<path d="M5.52372 16.9028L5.82609 17.082C7.09661 17.836 8.55324 18.2348 10.0387 18.2356H10.0419C14.6038 18.2356 18.3166 14.5236 18.3184 9.96147C18.3191 7.75046 17.4591 5.67171 15.8964 4.10765C14.3337 2.54387 12.2559 1.68207 10.0449 1.68116C5.47951 1.68116 1.76668 5.39254 1.76495 9.95469C1.76435 11.518 2.20168 13.0406 3.0303 14.3578L3.22725 14.6709L2.39094 17.7241L5.52372 16.9028ZM0.000244141 20.0892L1.41293 14.9309C0.54157 13.4212 0.0831698 11.7086 0.0838874 9.95423C0.0860114 4.46552 4.55279 9.15527e-05 10.0421 9.15527e-05C12.7058 0.0012397 15.2059 1.0379 17.086 2.91954C18.9659 4.80115 20.0009 7.3023 20 9.96227C19.9977 15.4507 15.53 19.917 10.0421 19.917C10.0417 19.917 10.0423 19.917 10.0421 19.917H10.0379C8.37131 19.9164 6.73376 19.4984 5.27933 18.7051L0.000244141 20.0892Z" fill="white"/>
<path d="M0.0836432 9.95668C0.0830404 11.711 0.54144 13.4238 1.4128 14.9333L0 20.0914L5.27892 18.7072C6.73343 19.5004 8.3709 19.9184 10.0374 19.9191H10.0417C15.5296 19.9191 19.9973 15.4528 19.9996 9.9644C20.0005 7.30429 18.9655 4.8032 17.0856 2.92168C15.2054 1.04015 12.7054 0.00337593 10.0417 0.00222778C4.55266 0.00222778 0.085772 4.46765 0.0834757 9.95637M3.22712 14.6732L3.03006 14.3603C2.20144 13.0429 1.76411 11.5203 1.76471 9.95712C1.76652 5.39525 5.47928 1.68357 10.0446 1.68357C12.2554 1.68444 14.3333 2.54632 15.8962 4.11007C17.4589 5.67393 18.3188 7.75285 18.3182 9.9636C18.3162 14.5258 14.6034 18.2377 10.0415 18.2377H10.0382C8.55286 18.2369 7.09611 17.8381 5.82568 17.0843L5.52331 16.905L2.39057 17.7264L3.22712 14.6732ZM10.0417 19.9191C10.0415 19.9191 10.0416 19.9191 10.0417 19.9191V19.9191Z" fill="#475569"/>
<path fill-rule="evenodd" clip-rule="evenodd" d="M7.55302 5.79455C7.3666 5.38018 7.17046 5.37189 6.99315 5.3646C6.84805 5.35843 6.68209 5.35883 6.51633 5.35883C6.35036 5.35883 6.0808 5.42111 5.85287 5.67009C5.62472 5.91909 4.98193 6.52098 4.98193 7.74511C4.98193 8.96935 5.87365 10.1523 5.99788 10.3184C6.12233 10.4843 7.71922 13.0768 10.2481 14.074C12.3499 14.9028 12.7776 14.738 13.2338 14.6964C13.69 14.655 14.706 14.0948 14.9132 13.5137C15.1206 12.9328 15.1206 12.4348 15.0584 12.3308C14.9963 12.2271 14.8303 12.1649 14.5815 12.0405C14.3326 11.9161 13.1094 11.3141 12.8813 11.2311C12.6532 11.1481 12.4873 11.1067 12.3214 11.3558C12.1555 11.6046 11.679 12.1649 11.5337 12.3308C11.3886 12.4971 11.2434 12.5179 10.9946 12.3934C10.7457 12.2686 9.94436 12.0061 8.99372 11.1586C8.25402 10.4991 7.75469 9.68462 7.60948 9.4355C7.46437 9.18671 7.59398 9.05194 7.71874 8.92788C7.83053 8.81639 7.96764 8.63737 8.09209 8.49216C8.21623 8.34685 8.25765 8.24316 8.34058 8.07719C8.42362 7.91112 8.3821 7.76581 8.31993 7.64135C8.25765 7.51691 7.77427 6.28656 7.55302 5.79455Z" fill="#475569"/>
</svg>
